# xmcd CD database file
#
# Track frame offsets:
#	150
#	17680
#	36765
#
# Disc length: 721 seconds
#
# Revision: 0
# Processed by: cddbd v1.5.1PL0 Copyright (c) Steve Scherf et al.
# Submitted via: CDex 1.51
#
DISCID=1902cf03
DTITLE=松田樹利亜 - だまってないで
DYEAR=1993
DGENRE=JPop
TTITLE0=だまってないで
TTITLE1=December rain
TTITLE2=だまってないで(original karaoke)
EXTD=YEAR: 1993
EXTT0=
EXTT1=
EXTT2=
PLAYORDER=
